<?xml version="1.0" encoding="utf-8"?>
<!-- Generator: Adobe Illustrator 18.1.0, SVG Export Plug-In . SVG Version: 6.00 Build 0)  -->
<svg version="1.1" id="Calque_1" xmlns="http://www.w3.org/2000/svg" xmlns:xlink="http://www.w3.org/1999/xlink" x="0px" y="0px"
	 viewBox="0 0 237.7 123.5" enable-background="new 0 0 237.7 123.5" xml:space="preserve">
<g>
	<polygon fill="#8E2800" points="150,84 150,118.3 237.7,60.8 150,0 150,35 41,35 41,84 	"/>
	<g>
		<path fill="#FFF0A5" d="M116.2,24H31.9C24.7,24,19,30.1,19,37.3v51.3c0,7.2,5.7,13.4,12.9,13.4h53.8l0.3,0l22,21.5V102h8.2
			c7.2,0,12.8-6.2,12.8-13.4V37.3C129,30.1,123.4,24,116.2,24z M50.8,68.3c-4.5,0-8.1-3.6-8.1-8.1s3.6-8.1,8.1-8.1s8.1,3.6,8.1,8.1
			S55.2,68.3,50.8,68.3z M74.2,68.3c-4.5,0-8.1-3.6-8.1-8.1s3.6-8.1,8.1-8.1c4.5,0,8.1,3.6,8.1,8.1S78.7,68.3,74.2,68.3z M97.5,68.3
			c-4.5,0-8.1-3.6-8.1-8.1s3.6-8.1,8.1-8.1c4.5,0,8.1,3.6,8.1,8.1S101.9,68.3,97.5,68.3z"/>
		<path fill="#8E2800" d="M97.1,0H12.9C5.7,0,0,5.9,0,13.1v51.3C0,71.6,5.7,78,12.9,78h0.4L0.6,95.1L19,82.5v-5.1v-40
			C19,30.1,24.7,24,31.9,24H110V13.1C110,5.9,104.4,0,97.1,0z"/>
	</g>
</g>
</svg>
